<svg xmlns="http://www.w3.org/2000/svg" xmlns:xlink="http://www.w3.org/1999/xlink" viewBox="0,0,256,256" width="100px" height="100px"><g fill="none" fill-rule="nonzero" stroke="none" stroke-width="1" stroke-linecap="butt" stroke-linejoin="miter" stroke-miterlimit="10" stroke-dasharray="" stroke-dashoffset="0" font-family="none" font-weight="none" font-size="none" text-anchor="none" style="mix-blend-mode: normal"><g transform="scale(2.56,2.56)"><g><path d="M87.212,57.157c1.135,-2.155 1.785,-4.605 1.785,-7.21c0,-6.621 -4.159,-12.257 -10.001,-14.478c0,-0.008 0.001,-0.015 0.001,-0.022c0,-11.598 -9.402,-21 -21,-21c-9.784,0 -17.981,6.701 -20.313,15.757c-1.476,-0.485 -3.048,-0.757 -4.687,-0.757c-7.692,0 -14.023,5.793 -14.89,13.252c-5.204,1.1 -9.11,5.716 -9.11,11.248c0,6.351 5.149,11.5 11.5,11.5c0.177,0 0.352,-0.012 0.526,-0.022c-0.004,0.175 -0.026,0.346 -0.026,0.522c0,11.322 9.178,20.5 20.5,20.5c6.437,0 12.175,-2.972 15.934,-7.614c2.178,2.225 5.207,3.614 8.566,3.614c4.65,0 8.674,-2.65 10.666,-6.518c1.052,0.334 2.171,0.518 3.334,0.518c6.075,0 11,-4.925 11,-11c0,-3.311 -1.47,-6.274 -3.785,-8.29z" fill="#fdff92"></path><path d="M69,37h-6.003c-2.485,-0.053 -4.5,-2.068 -4.5,-4.553c0,-2.333 1.782,-4.229 4.055,-4.455c-0.022,-0.181 -0.055,-0.358 -0.055,-0.545c0,-2.485 2.015,-4.5 4.5,-4.5c1.438,0 2.703,0.686 3.527,1.736c0.14,-2.636 2.302,-4.736 4.973,-4.736c2.761,0 5,2.239 5,5c0,0.446 -0.077,0.87 -0.187,1.282c0.642,-0.777 1.6,-1.282 2.687,-1.282c1.781,0 3.234,1.335 3.455,3.055c0.181,-0.022 0.358,-0.055 0.545,-0.055c2.485,0 4.5,2.015 4.5,4.5c0,2.485 -2.015,4.5 -4.5,4.553h-9.5h-5.497v1h-3z" fill="#fdfcef"></path><path d="M75.5,19c3.033,0 5.5,2.467 5.5,5.5c0,0.016 0,0.031 0,0.047c0.602,-0.355 1.29,-0.547 2,-0.547c1.831,0 3.411,1.261 3.858,3.005c0.047,-0.003 0.094,-0.005 0.142,-0.005c3.099,0 5.549,2.834 4.893,6.047c-0.48,2.351 -2.689,3.953 -5.089,3.953h-14.679c-0.276,0 -0.5,-0.224 -0.5,-0.5c0,-0.276 0.224,-0.5 0.5,-0.5h14.718c1.92,0 3.687,-1.282 4.071,-3.163c0.525,-2.57 -1.435,-4.837 -3.914,-4.837c-0.117,0 -0.23,0.017 -0.343,0.032l-0.141,0.019c-0.021,0.003 -0.041,0.004 -0.062,0.004c-0.246,0 -0.462,-0.185 -0.495,-0.437c-0.191,-1.493 -1.463,-2.618 -2.959,-2.618c-0.885,0 -1.723,0.401 -2.301,1.1c-0.098,0.118 -0.241,0.182 -0.386,0.182c-0.078,0 -0.156,-0.018 -0.228,-0.056c-0.209,-0.107 -0.314,-0.346 -0.254,-0.573c0.16,-0.6 0.202,-1.069 0.147,-1.549c-0.24,-2.127 -1.959,-3.909 -4.092,-4.088c-2.551,-0.215 -4.725,1.728 -4.859,4.246c-0.011,0.208 -0.15,0.387 -0.349,0.45c-0.05,0.016 -0.101,0.024 -0.152,0.024c-0.15,0 -0.296,-0.069 -0.392,-0.192c-0.772,-0.981 -1.913,-1.544 -3.134,-1.544c-2.206,0 -4,1.794 -4,4c0,0.117 0.017,0.23 0.032,0.343l0.019,0.141c0.016,0.134 -0.022,0.268 -0.106,0.373c-0.084,0.105 -0.207,0.172 -0.34,0.185c-2.352,0.234 -4.042,2.429 -3.504,4.865c0.408,1.853 2.174,3.093 4.072,3.093h5.952c0.276,0 0.5,0.224 0.5,0.5c0,0.276 -0.224,0.5 -0.5,0.5h-5.938c-2.467,0 -4.708,-1.704 -5.115,-4.138c-0.462,-2.763 1.344,-5.22 3.931,-5.74c-0.002,-0.04 -0.003,-0.081 -0.003,-0.122c0,-2.757 2.243,-5 5,-5c1.176,0 2.293,0.416 3.183,1.164c0.598,-2.404 2.762,-4.164 5.317,-4.164z" fill="#472b29"></path><path d="M76.997,26.447c1.403,0 2.609,0.999 2.913,2.341c0.367,-0.222 0.786,-0.341 1.212,-0.341c1.202,0 2.198,0.897 2.353,2.068c0.203,-0.045 0.396,-0.068 0.585,-0.068c1.529,0 2.811,1.2 2.918,2.732c0.009,0.138 -0.094,0.257 -0.232,0.267c-0.006,0 -0.012,0 -0.018,0c-0.13,0 -0.24,-0.101 -0.249,-0.232c-0.089,-1.271 -1.151,-2.268 -2.419,-2.268c-0.229,0 -0.47,0.042 -0.738,0.127c-0.022,0.007 -0.045,0.01 -0.067,0.01c-0.055,0 -0.11,-0.02 -0.156,-0.054c-0.064,-0.047 -0.102,-0.129 -0.102,-0.209c0,-1.034 -0.841,-1.875 -1.875,-1.875c-0.447,0 -0.885,0.168 -1.231,0.473c-0.047,0.041 -0.106,0.063 -0.165,0.063c-0.032,0 -0.063,-0.006 -0.093,-0.019c-0.088,-0.035 -0.148,-0.117 -0.155,-0.212c-0.102,-1.292 -1.191,-2.305 -2.479,-2.305c-0.208,0 -0.425,0.034 -0.682,0.107c-0.023,0.007 -0.047,0.01 -0.07,0.01c-0.109,0 -0.207,-0.073 -0.239,-0.182c-0.038,-0.133 0.039,-0.271 0.172,-0.309c0.3,-0.084 0.561,-0.124 0.817,-0.124z" fill="#472b29"></path><path d="M15.402,49h-9.905c-0.276,0 -0.5,-0.224 -0.5,-0.5c0,-0.276 0.224,-0.5 0.5,-0.5h9.905c0.276,0 0.5,0.224 0.5,0.5c0,0.276 -0.223,0.5 -0.5,0.5z" fill="#ffffff"></path><path d="M18.497,49h-1c-0.276,0 -0.5,-0.224 -0.5,-0.5c0,-0.276 0.224,-0.5 0.5,-0.5h1c0.276,0 0.5,0.224 0.5,0.5c0,0.276 -0.223,0.5 -0.5,0.5z" fill="#ffffff"></path><path d="M23.488,51h-8.991c-0.276,0 -0.5,-0.224 -0.5,-0.5c0,-0.276 0.224,-0.5 0.5,-0.5h8.991c0.276,0 0.5,0.224 0.5,0.5c0,0.276 -0.224,0.5 -0.5,0.5z" fill="#ffffff"></path><path d="M12.497,51h-1c-0.276,0 -0.5,-0.224 -0.5,-0.5c0,-0.276 0.224,-0.5 0.5,-0.5h1c0.276,0 0.5,0.224 0.5,0.5c0,0.276 -0.223,0.5 -0.5,0.5z" fill="#ffffff"></path><path d="M9.497,51h-2c-0.276,0 -0.5,-0.224 -0.5,-0.5c0,-0.276 0.224,-0.5 0.5,-0.5h2c0.276,0 0.5,0.224 0.5,0.5c0,0.276 -0.223,0.5 -0.5,0.5z" fill="#ffffff"></path><path d="M15.497,53h-2c-0.276,0 -0.5,-0.224 -0.5,-0.5c0,-0.276 0.224,-0.5 0.5,-0.5h2c0.276,0 0.5,0.224 0.5,0.5c0,0.276 -0.224,0.5 -0.5,0.5z" fill="#ffffff"></path><path d="M18.497,44c-0.177,0 -0.823,0 -1,0c-0.276,0 -0.5,0.224 -0.5,0.5c0,0.276 0.224,0.5 0.5,0.5c0.177,0 0.823,0 1,0c0.276,0 0.5,-0.224 0.5,-0.5c0,-0.276 -0.224,-0.5 -0.5,-0.5z" fill="#ffffff"></path><path d="M18.497,46c-0.177,0 -4.823,0 -5,0c-0.276,0 -0.5,0.224 -0.5,0.5c0,0.276 0.224,0.5 0.5,0.5c0.177,0 4.823,0 5,0c0.276,0 0.5,-0.224 0.5,-0.5c0,-0.276 -0.224,-0.5 -0.5,-0.5z" fill="#ffffff"></path><path d="M23.497,48c-0.177,0 -2.823,0 -3,0c-0.276,0 -0.5,0.224 -0.5,0.5c0,0.276 0.224,0.5 0.5,0.5c0.177,0 2.823,0 3,0c0.276,0 0.5,-0.224 0.5,-0.5c0,-0.276 -0.224,-0.5 -0.5,-0.5z" fill="#ffffff"></path><path d="M89.497,66h-10c-0.276,0 -0.5,-0.224 -0.5,-0.5c0,-0.276 0.224,-0.5 0.5,-0.5h10c0.276,0 0.5,0.224 0.5,0.5c0,0.276 -0.224,0.5 -0.5,0.5z" fill="#ffffff"></path><path d="M93.497,66h-2c-0.276,0 -0.5,-0.224 -0.5,-0.5c0,-0.276 0.224,-0.5 0.5,-0.5h2c0.276,0 0.5,0.224 0.5,0.5c0,0.276 -0.224,0.5 -0.5,0.5z" fill="#ffffff"></path><path d="M98.497,68h-10c-0.276,0 -0.5,-0.224 -0.5,-0.5c0,-0.276 0.224,-0.5 0.5,-0.5h10c0.276,0 0.5,0.224 0.5,0.5c0,0.276 -0.223,0.5 -0.5,0.5z" fill="#ffffff"></path><path d="M86.497,68h-1c-0.276,0 -0.5,-0.224 -0.5,-0.5c0,-0.276 0.224,-0.5 0.5,-0.5h1c0.276,0 0.5,0.224 0.5,0.5c0,0.276 -0.224,0.5 -0.5,0.5z" fill="#ffffff"></path><path d="M83.372,68h-1.875c-0.276,0 -0.5,-0.224 -0.5,-0.5c0,-0.276 0.224,-0.5 0.5,-0.5h1.875c0.276,0 0.5,0.224 0.5,0.5c0,0.276 -0.224,0.5 -0.5,0.5z" fill="#ffffff"></path><path d="M92.497,64h-5c-0.276,0 -0.5,-0.224 -0.5,-0.5c0,-0.276 0.224,-0.5 0.5,-0.5h5c0.276,0 0.5,0.224 0.5,0.5c0,0.276 -0.223,0.5 -0.5,0.5z" fill="#ffffff"></path><path d="M89.497,70h-2c-0.276,0 -0.5,-0.224 -0.5,-0.5c0,-0.276 0.224,-0.5 0.5,-0.5h2c0.276,0 0.5,0.224 0.5,0.5c0,0.276 -0.224,0.5 -0.5,0.5z" fill="#ffffff"></path><path d="M69.208,75h-33.416c-2.647,0 -4.792,-2.145 -4.792,-4.792v-33.416c0,-2.647 2.145,-4.792 4.792,-4.792h33.417c2.646,0 4.791,2.145 4.791,4.792v33.417c0,2.646 -2.145,4.791 -4.792,4.791z" fill="#fdfcef"></path><circle cx="42" cy="42" r="3" fill="#3678ba"></circle><path d="M41.994,45.251c-0.624,0 -1.234,-0.18 -1.769,-0.529c-0.727,-0.474 -1.226,-1.203 -1.405,-2.053c-0.179,-0.85 -0.016,-1.718 0.458,-2.445c0.474,-0.727 1.203,-1.226 2.053,-1.405c0.848,-0.179 1.717,-0.016 2.445,0.458c0.727,0.474 1.226,1.203 1.405,2.053c0.179,0.85 0.016,1.718 -0.458,2.445v0c-0.474,0.727 -1.203,1.226 -2.053,1.405c-0.225,0.048 -0.452,0.071 -0.676,0.071zM42.005,39.249c-0.19,0 -0.381,0.02 -0.572,0.06c-0.719,0.151 -1.336,0.573 -1.737,1.189c-0.401,0.615 -0.539,1.35 -0.388,2.069c0.151,0.719 0.574,1.336 1.189,1.737c0.615,0.401 1.348,0.539 2.068,0.388c0.719,-0.151 1.336,-0.573 1.737,-1.189v0c0.401,-0.615 0.539,-1.35 0.388,-2.069c-0.151,-0.719 -0.574,-1.336 -1.189,-1.737c-0.451,-0.295 -0.968,-0.448 -1.496,-0.448z" fill="#472b29"></path><path d="M41.99,46.913c-0.942,0 -1.865,-0.272 -2.673,-0.799c-0.116,-0.075 -0.148,-0.23 -0.073,-0.346c0.076,-0.116 0.23,-0.148 0.346,-0.073c0.985,0.643 2.163,0.865 3.318,0.622c1.153,-0.243 2.143,-0.92 2.786,-1.907c0.644,-0.987 0.865,-2.166 0.622,-3.319c-0.243,-1.153 -0.92,-2.143 -1.907,-2.786c-1.208,-0.788 -2.729,-0.935 -4.066,-0.394c-0.13,0.052 -0.274,-0.01 -0.326,-0.138c-0.052,-0.128 0.01,-0.274 0.138,-0.325c1.489,-0.602 3.182,-0.438 4.527,0.439c1.099,0.717 1.853,1.818 2.123,3.102c0.27,1.284 0.024,2.596 -0.692,3.695c-0.717,1.099 -1.818,1.853 -3.102,2.123c-0.339,0.071 -0.681,0.106 -1.021,0.106z" fill="#472b29"></path><g fill="#472b29"><path d="M38,44.645c-0.085,0 -0.168,-0.043 -0.214,-0.122c-0.972,-1.626 -0.934,-3.621 0.101,-5.207c0.076,-0.116 0.23,-0.148 0.346,-0.073c0.116,0.075 0.148,0.23 0.073,0.346c-0.929,1.424 -0.964,3.217 -0.091,4.677c0.071,0.118 0.032,0.272 -0.086,0.343c-0.041,0.025 -0.085,0.036 -0.129,0.036z"></path></g><g><circle cx="42" cy="53" r="3" fill="#ee3e54"></circle><path d="M41.994,56.251c-0.624,0 -1.234,-0.18 -1.769,-0.529c-0.727,-0.474 -1.226,-1.203 -1.405,-2.053c-0.179,-0.85 -0.016,-1.718 0.458,-2.445c0.474,-0.727 1.203,-1.226 2.053,-1.405c0.848,-0.179 1.717,-0.016 2.445,0.458c0.727,0.474 1.226,1.203 1.405,2.053c0.179,0.85 0.016,1.718 -0.458,2.445v0c-0.474,0.727 -1.203,1.226 -2.053,1.405c-0.225,0.048 -0.452,0.071 -0.676,0.071zM42.005,50.249c-0.19,0 -0.381,0.02 -0.572,0.06c-0.719,0.151 -1.336,0.573 -1.737,1.189c-0.401,0.615 -0.539,1.35 -0.388,2.069c0.151,0.719 0.574,1.336 1.189,1.737c0.615,0.401 1.348,0.539 2.068,0.388c0.719,-0.151 1.336,-0.573 1.737,-1.189v0c0.401,-0.615 0.539,-1.35 0.388,-2.069c-0.151,-0.719 -0.574,-1.336 -1.189,-1.737c-0.451,-0.295 -0.968,-0.448 -1.496,-0.448z" fill="#472b29"></path></g><g fill="#472b29"><path d="M41.99,57.913c-0.942,0 -1.865,-0.272 -2.673,-0.799c-0.116,-0.075 -0.148,-0.23 -0.073,-0.346c0.076,-0.116 0.23,-0.148 0.346,-0.073c0.985,0.643 2.163,0.865 3.318,0.622c1.153,-0.243 2.143,-0.92 2.786,-1.907c0.644,-0.987 0.865,-2.166 0.622,-3.319c-0.243,-1.153 -0.92,-2.143 -1.907,-2.786c-1.208,-0.788 -2.729,-0.935 -4.066,-0.394c-0.13,0.052 -0.274,-0.01 -0.326,-0.138c-0.052,-0.128 0.01,-0.274 0.138,-0.325c1.489,-0.602 3.182,-0.438 4.527,0.439c1.099,0.717 1.853,1.818 2.123,3.102c0.27,1.284 0.024,2.596 -0.692,3.695c-0.717,1.099 -1.818,1.853 -3.102,2.123c-0.339,0.071 -0.681,0.106 -1.021,0.106z"></path></g><g fill="#472b29"><path d="M38,55.645c-0.085,0 -0.168,-0.043 -0.214,-0.122c-0.972,-1.626 -0.934,-3.621 0.101,-5.207c0.076,-0.116 0.23,-0.148 0.346,-0.073c0.116,0.075 0.148,0.23 0.073,0.346c-0.929,1.424 -0.964,3.217 -0.091,4.677c0.071,0.118 0.032,0.272 -0.086,0.343c-0.041,0.025 -0.085,0.036 -0.129,0.036z"></path></g><g><circle cx="42" cy="64" r="3" fill="#eab436"></circle><path d="M41.994,67.251c-0.624,0 -1.234,-0.18 -1.769,-0.529c-0.727,-0.474 -1.226,-1.203 -1.405,-2.053c-0.179,-0.85 -0.016,-1.718 0.458,-2.445c0.474,-0.727 1.203,-1.226 2.053,-1.405c0.848,-0.179 1.717,-0.016 2.445,0.458c0.727,0.474 1.226,1.203 1.405,2.053c0.179,0.85 0.016,1.718 -0.458,2.445v0c-0.474,0.727 -1.203,1.226 -2.053,1.405c-0.225,0.048 -0.452,0.071 -0.676,0.071zM42.005,61.249c-0.19,0 -0.381,0.02 -0.572,0.06c-0.719,0.151 -1.336,0.573 -1.737,1.189c-0.401,0.615 -0.539,1.35 -0.388,2.069c0.151,0.719 0.574,1.336 1.189,1.737c0.615,0.401 1.348,0.539 2.068,0.388c0.719,-0.151 1.336,-0.573 1.737,-1.189v0c0.401,-0.615 0.539,-1.35 0.388,-2.069c-0.151,-0.719 -0.574,-1.336 -1.189,-1.737c-0.451,-0.295 -0.968,-0.448 -1.496,-0.448z" fill="#472b29"></path></g><g fill="#472b29"><path d="M41.99,68.913c-0.942,0 -1.865,-0.272 -2.673,-0.799c-0.116,-0.075 -0.148,-0.23 -0.073,-0.346c0.076,-0.116 0.23,-0.148 0.346,-0.073c0.985,0.643 2.163,0.865 3.318,0.622c1.153,-0.243 2.143,-0.92 2.786,-1.907c0.644,-0.987 0.865,-2.166 0.622,-3.319c-0.243,-1.153 -0.92,-2.143 -1.907,-2.786c-1.208,-0.788 -2.729,-0.935 -4.066,-0.394c-0.13,0.052 -0.274,-0.01 -0.326,-0.138c-0.052,-0.128 0.01,-0.274 0.138,-0.325c1.489,-0.602 3.182,-0.438 4.527,0.439c1.099,0.717 1.853,1.818 2.123,3.102c0.27,1.284 0.024,2.596 -0.692,3.695c-0.717,1.099 -1.818,1.853 -3.102,2.123c-0.339,0.071 -0.681,0.106 -1.021,0.106z"></path></g><g fill="#472b29"><path d="M38,66.645c-0.085,0 -0.168,-0.043 -0.214,-0.122c-0.972,-1.626 -0.934,-3.621 0.101,-5.207c0.076,-0.116 0.23,-0.148 0.346,-0.073c0.116,0.075 0.148,0.23 0.073,0.346c-0.929,1.424 -0.964,3.217 -0.091,4.677c0.071,0.118 0.032,0.272 -0.086,0.343c-0.041,0.025 -0.085,0.036 -0.129,0.036z"></path></g><g fill="#472b29"><path d="M67.5,43h-17c-0.276,0 -0.5,-0.224 -0.5,-0.5c0,-0.276 0.224,-0.5 0.5,-0.5h17c0.276,0 0.5,0.224 0.5,0.5c0,0.276 -0.224,0.5 -0.5,0.5z"></path></g><g fill="#472b29"><path d="M67.5,53h-17c-0.276,0 -0.5,-0.224 -0.5,-0.5c0,-0.276 0.224,-0.5 0.5,-0.5h17c0.276,0 0.5,0.224 0.5,0.5c0,0.276 -0.224,0.5 -0.5,0.5z"></path></g><g fill="#472b29"><path d="M67.5,64h-17c-0.276,0 -0.5,-0.224 -0.5,-0.5c0,-0.276 0.224,-0.5 0.5,-0.5h17c0.276,0 0.5,0.224 0.5,0.5c0,0.276 -0.224,0.5 -0.5,0.5z"></path></g><g fill="#472b29"><path d="M68.625,32.4c2.743,0 4.975,2.232 4.975,4.975v32.25c0,2.743 -2.232,4.975 -4.975,4.975h-32.25c-2.743,0 -4.975,-2.232 -4.975,-4.975v-32.25c0,-2.743 2.232,-4.975 4.975,-4.975h32.25M68.625,31h-32.25c-3.521,0 -6.375,2.854 -6.375,6.375v32.25c0,3.521 2.854,6.375 6.375,6.375h32.25c3.521,0 6.375,-2.854 6.375,-6.375v-32.25c0,-3.521 -2.854,-6.375 -6.375,-6.375z"></path></g><g fill="#472b29"><path d="M61.5,35h-7c-0.276,0 -0.5,-0.224 -0.5,-0.5c0,-0.276 0.224,-0.5 0.5,-0.5h7c0.276,0 0.5,0.224 0.5,0.5c0,0.276 -0.224,0.5 -0.5,0.5z"></path></g><g fill="#472b29"><path d="M33.5,43c-0.276,0 -0.5,-0.224 -0.5,-0.5v-4.508c0,-2.201 1.942,-3.992 4.33,-3.992h14.17c0.276,0 0.5,0.224 0.5,0.5c0,0.276 -0.224,0.5 -0.5,0.5h-14.17c-1.836,0 -3.33,1.342 -3.33,2.992v4.508c0,0.276 -0.224,0.5 -0.5,0.5z"></path></g><g fill="#472b29"><path d="M71.5,60c-0.276,0 -0.5,-0.224 -0.5,-0.5v-21.508c0,-1.65 -1.171,-2.992 -2.611,-2.992h-2.889c-0.276,0 -0.5,-0.224 -0.5,-0.5c0,-0.276 0.224,-0.5 0.5,-0.5h2.889c1.991,0 3.611,1.791 3.611,3.992v21.508c0,0.276 -0.224,0.5 -0.5,0.5z"></path></g><g fill="#472b29"><path d="M47.5,73h-10.224c-2.358,0 -4.276,-1.791 -4.276,-3.992v-20.508c0,-0.276 0.224,-0.5 0.5,-0.5c0.276,0 0.5,0.224 0.5,0.5v20.508c0,1.65 1.47,2.992 3.276,2.992h10.224c0.276,0 0.5,0.224 0.5,0.5c0,0.276 -0.224,0.5 -0.5,0.5z"></path></g><g fill="#472b29"><path d="M67.724,73h-17.224c-0.276,0 -0.5,-0.224 -0.5,-0.5c0,-0.276 0.224,-0.5 0.5,-0.5h17.224c1.806,0 3.276,-1.342 3.276,-2.992v-6.508c0,-0.276 0.224,-0.5 0.5,-0.5c0.276,0 0.5,0.224 0.5,0.5v6.508c0,2.201 -1.918,3.992 -4.276,3.992z"></path></g><g><path d="M24,80h-3.003c-1.933,-0.053 -3.5,-1.62 -3.5,-3.553c0,-1.781 1.335,-3.234 3.055,-3.455c-0.028,-0.179 -0.055,-0.358 -0.055,-0.545c0,-1.933 1.567,-3.5 3.5,-3.5c1.032,0 1.95,0.455 2.59,1.165c0.384,-1.808 1.987,-3.165 3.91,-3.165c2.209,0 4,1.791 4,4c0,0.191 -0.03,0.374 -0.056,0.558c0.428,-0.344 0.965,-0.558 1.556,-0.558c1.228,0 2.245,0.887 2.455,2.055c0.179,-0.028 0.358,-0.055 0.545,-0.055c1.933,0 3.5,1.567 3.5,3.5c0,1.933 -1.567,3.5 -3.5,3.553h-7.997v0h-7z" fill="#fdfcef"></path><path d="M22.747,75.447c0.138,0 0.25,-0.112 0.25,-0.25c0,-1.223 -0.995,-2.218 -2.218,-2.218c-0.034,0.009 -0.737,-0.001 -1.244,0.136c-0.133,0.036 -0.212,0.173 -0.176,0.306c0.036,0.134 0.173,0.213 0.306,0.176c0.444,-0.12 1.1,-0.12 1.113,-0.118c0.948,0 1.719,0.771 1.719,1.718c0,0.138 0.112,0.25 0.25,0.25z" fill="#472b29"></path><circle cx="29.5" cy="79.5" r="0.5" fill="#472b29"></circle><path d="M17.165,77.157c0.505,1.732 2.204,2.843 4.008,2.843h3.324c0.276,0 0.5,-0.224 0.5,-0.5c0,-0.276 -0.224,-0.5 -0.5,-0.5h-3.395c-1.243,0 -2.435,-0.701 -2.886,-1.859c-0.755,-1.939 0.536,-3.861 2.399,-4.1c0.134,-0.018 0.255,-0.088 0.336,-0.196c0.081,-0.108 0.115,-0.244 0.094,-0.377c-0.024,-0.153 -0.049,-0.308 -0.049,-0.468c0,-1.654 1.346,-3 3,-3c0.85,0 1.638,0.355 2.219,1c0.125,0.139 0.321,0.198 0.5,0.148c0.182,-0.049 0.321,-0.195 0.36,-0.379c0.342,-1.604 1.781,-2.769 3.422,-2.769c1.93,0 3.5,1.57 3.5,3.5c0,0.143 -0.021,0.28 -0.041,0.418c-0.029,0.203 0.063,0.438 0.242,0.54c0.179,0.102 0.396,0.118 0.556,-0.01c0.364,-0.293 0.794,-0.448 1.243,-0.448c0.966,0 1.792,0.691 1.963,1.644c0.048,0.267 0.296,0.446 0.569,0.405c0.153,-0.024 0.308,-0.049 0.468,-0.049c1.97,0 3.503,1.908 2.846,3.974c-0.396,1.244 -1.637,2.026 -2.942,2.026h-7.404c-0.276,0 -0.5,0.224 -0.5,0.5c0,0.276 0.224,0.5 0.5,0.5h7.343c1.92,0 3.687,-1.282 4.071,-3.163c0.525,-2.57 -1.435,-4.837 -3.914,-4.837c-0.059,0 -0.116,0.002 -0.174,0.006c-0.414,-1.186 -1.537,-2.006 -2.826,-2.006c-0.349,0 -0.689,0.061 -1.011,0.18c-0.165,-2.333 -2.116,-4.18 -4.489,-4.18c-1.831,0 -3.466,1.127 -4.153,2.774c-0.681,-0.498 -1.502,-0.774 -2.347,-0.774c-2.206,0 -4,1.794 -4,4c0,0.048 0.001,0.095 0.004,0.142c-2.102,0.54 -3.504,2.727 -2.836,5.015z" fill="#472b29"></path><path d="M26.497,79c0.159,0 0.841,0 1,0c0.276,0 0.5,0.224 0.5,0.5c0,0.276 -0.224,0.5 -0.5,0.5c-0.159,0 -0.841,0 -1,0c-0.276,0 -0.5,-0.224 -0.5,-0.5c0,-0.276 0.224,-0.5 0.5,-0.5z" fill="#472b29"></path></g></g></g></g></svg>